HIERARCHY
ROOT Hips
{
	OFFSET 0.000000 89.005402 0.000000
	CHANNELS 6 Xposition Yposition Zposition Xrotation Yrotation Zrotation
	JOINT Spine
	{
		OFFSET 0.116900 10.681000 0.373400
		CHANNELS 3 Xrotation Yrotation Zrotation
		JOINT Spine1
		{
			OFFSET 0.000000 13.840401 0.053500
			CHANNELS 3 Xrotation Yrotation Zrotation
			JOINT Spine2
			{
				OFFSET 0.000000 14.712700 -0.366200
				CHANNELS 3 Xrotation Yrotation Zrotation
				JOINT Neck
				{
					OFFSET 0.000000 35.415497 -3.314200
					CHANNELS 3 Xrotation Yrotation Zrotation
					JOINT Head
					{
						OFFSET 0.000000 16.899200 1.218300
						CHANNELS 3 Xrotation Yrotation Zrotation
						JOINT HeadTop_End
						{
							OFFSET 0.000000 22.206207 2.192500
							CHANNELS 3 Xrotation Yrotation Zrotation
							End Site
							{
								OFFSET 0.000000 22.314178 0.000000
							}
						}
					}
				}
				JOINT LeftShoulder
				{
					OFFSET 12.896400 26.716293 -4.548400
					CHANNELS 3 Xrotation Yrotation Zrotation
					JOINT LeftArm
					{
						OFFSET 19.027000 -4.857010 -1.718400
						CHANNELS 3 Xrotation Yrotation Zrotation
						JOINT LeftForeArm
						{
							OFFSET 24.179897 0.000000 0.000000
							CHANNELS 3 Xrotation Yrotation Zrotation
							JOINT LeftHand
							{
								OFFSET 27.156403 0.000000 0.000000
								CHANNELS 3 Xrotation Yrotation Zrotation
								JOINT LeftHandIndex1
								{
									OFFSET 16.441200 0.000000 0.000000
									CHANNELS 3 Xrotation Yrotation Zrotation
									JOINT LeftHandIndex2
									{
										OFFSET 4.821899 0.000000 0.000000
										CHANNELS 3 Xrotation Yrotation Zrotation
										JOINT LeftHandIndex3
										{
											OFFSET 6.386497 0.000000 0.000000
											CHANNELS 3 Xrotation Yrotation Zrotation
											JOINT LeftHandIndex4
											{
												OFFSET 5.188988 0.000000 0.000000
												CHANNELS 3 Xrotation Yrotation Zrotation
												End Site
												{
													OFFSET -0.178703 5.185913 0.000177
												}
											}
										}
									}
								}
								JOINT LeftHandThumb1
								{
									OFFSET 6.534897 -5.032593 5.900300
									CHANNELS 3 Xrotation Yrotation Zrotation
									JOINT LeftHandThumb2
									{
										OFFSET 3.818176 -2.204422 2.204423
										CHANNELS 3 Xrotation Yrotation Zrotation
										JOINT LeftHandThumb3
										{
											OFFSET 3.252098 -1.877594 1.877601
											CHANNELS 3 Xrotation Yrotation Zrotation
											JOINT LeftHandThumb4
											{
												OFFSET 5.251778 -3.032120 3.032117
												CHANNELS 3 Xrotation Yrotation Zrotation
												End Site
												{
													OFFSET 0.000023 6.780014 0.000000
												}
											}
										}
									}
								}
							}
						}
					}
				}
				JOINT RightShoulder
				{
					OFFSET -12.896300 26.716293 -4.548400
					CHANNELS 3 Xrotation Yrotation Zrotation
					JOINT RightArm
					{
						OFFSET -19.027000 -4.857010 -1.718400
						CHANNELS 3 Xrotation Yrotation Zrotation
						JOINT RightForeArm
						{
							OFFSET -24.179897 0.000000 0.000000
							CHANNELS 3 Xrotation Yrotation Zrotation
							JOINT RightHand
							{
								OFFSET -27.156403 0.000000 0.000000
								CHANNELS 3 Xrotation Yrotation Zrotation
								JOINT RightHandThumb1
								{
									OFFSET -6.591202 -4.852203 5.988100
									CHANNELS 3 Xrotation Yrotation Zrotation
									JOINT RightHandThumb2
									{
										OFFSET -3.818176 -2.204422 2.204423
										CHANNELS 3 Xrotation Yrotation Zrotation
										JOINT RightHandThumb3
										{
											OFFSET -3.252098 -1.877594 1.877601
											CHANNELS 3 Xrotation Yrotation Zrotation
											JOINT RightHandThumb4
											{
												OFFSET -5.251778 -3.032120 3.032117
												CHANNELS 3 Xrotation Yrotation Zrotation
												End Site
												{
													OFFSET -0.000023 6.780014 0.000000
												}
											}
										}
									}
								}
								JOINT RightHandIndex1
								{
									OFFSET -16.029404 0.000000 0.000000
									CHANNELS 3 Xrotation Yrotation Zrotation
									JOINT RightHandIndex2
									{
										OFFSET -5.213303 0.000000 0.000000
										CHANNELS 3 Xrotation Yrotation Zrotation
										JOINT RightHandIndex3
										{
											OFFSET -6.386528 0.000000 0.000000
											CHANNELS 3 Xrotation Yrotation Zrotation
											JOINT RightHandIndex4
											{
												OFFSET -5.189026 0.000000 0.000000
												CHANNELS 3 Xrotation Yrotation Zrotation
												End Site
												{
													OFFSET 0.236702 5.183624 0.001972
												}
											}
										}
									}
								}
							}
						}
					}
				}
			}
		}
	}
	JOINT LeftUpLeg
	{
		OFFSET 14.073000 -7.904099 -1.463000
		CHANNELS 3 Xrotation Yrotation Zrotation
		JOINT LeftLeg
		{
			OFFSET -0.109806 -34.073280 4.093200
			CHANNELS 3 Xrotation Yrotation Zrotation
			JOINT LeftFoot
			{
				OFFSET 0.109806 -29.899420 -6.319000
				CHANNELS 3 Xrotation Yrotation Zrotation
				JOINT LeftToeBase
				{
					OFFSET 1.551100 -14.988700 20.535801
					CHANNELS 3 Xrotation Yrotation Zrotation
					JOINT LeftToe_End
					{
						OFFSET 0.221200 0.570800 13.248301
						CHANNELS 3 Xrotation Yrotation Zrotation
						End Site
						{
							OFFSET 0.000000 13.262435 0.000000
						}
					}
				}
			}
		}
	}
	JOINT RightUpLeg
	{
		OFFSET -13.839300 -7.904099 -1.463000
		CHANNELS 3 Xrotation Yrotation Zrotation
		JOINT RightLeg
		{
			OFFSET 0.109694 -34.073219 4.093300
			CHANNELS 3 Xrotation Yrotation Zrotation
			JOINT RightFoot
			{
				OFFSET -0.109694 -29.899384 -6.319200
				CHANNELS 3 Xrotation Yrotation Zrotation
				JOINT RightToeBase
				{
					OFFSET -1.551100 -14.988700 20.535801
					CHANNELS 3 Xrotation Yrotation Zrotation
					JOINT RightToe_End
					{
						OFFSET -0.221200 0.570900 13.248299
						CHANNELS 3 Xrotation Yrotation Zrotation
						End Site
						{
							OFFSET 0.000000 13.262440 0.000000
						}
					}
				}
			}
		}
	}
}
MOTION
Frames: 5
Frame Time: 0.033333
0.706837 69.493874 39.317295 -2.007510 -48.654607 -7.360566 8.535119 1.595579 -3.187816 10.297979 2.865499 -3.566579 10.353132 2.851524 -3.389063 -1.465279 1.875733 -3.626555 1.561243 15.189437 0.851868 0.000001 -0.000000 -0.000000 2.973931 -5.554791 -3.856913 -48.847737 -10.926247 -52.728084 0.000065 -112.308869 0.000076 -21.491583 -4.276068 -3.686000 5.029920 6.628649 -74.357510 8.636854 6.654509 -104.815817 5.029924 6.628650 -74.357496 0.000000 -0.000002 0.000001 5.477418 9.572873 -5.045664 18.936076 30.407056 -7.599447 8.227163 38.219297 10.744996 -0.000002 0.000002 0.000000 1.546781 3.999638 -0.964481 -69.968799 35.343784 75.670607 0.000006 103.954257 -0.000006 -4.789687 16.840139 -24.827951 8.395949 -16.401190 6.859059 13.617787 -18.222574 -1.655204 70.789105 -48.031260 23.551863 -0.000001 -0.000003 0.000001 5.546596 -6.806068 78.334299 8.230104 -6.829531 100.656846 5.546589 -6.806067 78.334319 -0.000000 -0.000002 0.000001 -43.428860 -6.518521 34.161078 57.268046 -11.283280 9.870837 -13.366150 -10.149668 -29.702768 -9.184018 -0.000002 -0.000008 0.000000 0.000000 -0.000000 -9.820679 -12.160451 -36.557894 42.409160 10.435171 -8.281009 -21.365820 0.680716 26.847802 -7.379228 -0.493247 6.268900 0.000000 -0.000000 -0.000001 
0.100111 69.761574 37.363403 -2.310473 -48.231401 -6.946280 8.465776 1.572516 -2.949300 10.260750 2.814836 -3.297448 10.307981 2.810224 -3.128045 -0.351888 2.026076 -4.289493 2.110515 15.637332 0.348214 0.000001 -0.000001 -0.000000 2.750213 -5.196971 -2.338721 -50.058849 -10.310132 -53.068005 -0.000007 -114.177342 -0.000007 -17.992749 -2.888975 -0.404833 5.029919 6.628649 -74.357510 8.636853 6.654506 -104.815823 5.029920 6.628652 -74.357496 -0.000002 -0.000001 -0.000001 5.477417 9.572873 -5.045667 18.936080 30.407056 -7.599447 8.227154 38.219293 10.744996 0.000005 -0.000000 -0.000003 1.917649 5.405144 -0.569537 -69.489750 35.947221 74.218652 0.000016 103.390295 -0.000009 -5.188783 15.845351 -24.609481 8.395945 -16.401190 6.859065 13.617789 -18.222578 -1.655203 70.789112 -48.031260 23.551869 -0.000000 0.000000 0.000000 5.546593 -6.806066 78.334299 8.230106 -6.829525 100.656839 5.546598 -6.806068 78.334319 0.000001 -0.000001 0.000000 -42.292149 -6.020476 34.635831 52.594748 -11.360246 9.884587 -10.375178 -10.817978 -31.535673 -8.954509 -0.000011 0.000008 -0.000000 0.000001 0.000000 -9.963347 -11.987540 -36.427236 42.568095 10.809416 -7.942253 -21.636721 -0.127736 28.685469 -7.593063 -0.315442 5.050121 -0.000000 -0.000001 0.000000 
-0.566754 69.964378 35.166164 -2.739158 -47.643131 -6.322548 8.363328 1.564895 -2.685272 10.191894 2.783524 -3.089053 10.230182 2.798333 -2.927975 0.912193 2.160014 -5.191147 2.598691 15.889339 -0.087737 -0.000001 -0.000000 -0.000000 2.520918 -4.574340 -1.445972 -49.971010 -10.133726 -53.977182 -0.000002 -116.054312 0.000009 -15.627632 -2.006654 1.807336 5.029920 6.628650 -74.357510 8.636852 6.654506 -104.815823 5.029926 6.628648 -74.357496 -0.000002 0.000000 -0.000000 5.477417 9.572875 -5.045667 18.936078 30.407056 -7.599445 8.227159 38.219297 10.744997 -0.000002 0.000001 -0.000002 2.245288 7.169130 -0.476870 -68.530621 36.179095 72.439989 -0.000074 102.863475 0.000077 -5.553961 14.358391 -24.360751 8.395945 -16.401193 6.859060 13.617791 -18.222576 -1.655204 70.789105 -48.031263 23.551863 0.000001 0.000001 -0.000000 5.546593 -6.806067 78.334292 8.230102 -6.829531 100.656839 5.546588 -6.806066 78.334319 -0.000000 0.000000 0.000001 -41.334119 -5.303034 34.866326 47.427013 -11.115544 9.992180 -6.515484 -12.537394 -33.470481 -9.678860 -0.000005 -0.000006 -0.000000 0.000001 0.000000 -9.554649 -12.002422 -36.142103 43.228045 11.297576 -7.563332 -22.463818 -2.196720 30.293405 -7.540441 -0.182453 3.871838 0.000000 -0.000000 -0.000000 
-1.309772 70.184395 32.791973 -3.001073 -46.484420 -5.225553 8.182780 1.563097 -2.402323 10.081189 2.734695 -2.969609 10.110199 2.773693 -2.820305 2.160326 2.253824 -6.321502 2.988965 15.782028 -0.377622 -0.000000 -0.000001 0.000001 2.365723 -4.019268 -1.175123 -48.703842 -10.298585 -55.287516 0.000020 -117.998471 0.000011 -13.442958 -1.231976 3.150244 5.029924 6.628647 -74.357510 8.636854 6.654505 -104.815823 5.029924 6.628647 -74.357496 0.000000 -0.000000 -0.000000 5.477421 9.572874 -5.045661 18.936075 30.407053 -7.599449 8.227159 38.219297 10.745003 -0.000002 0.000000 -0.000002 2.421370 8.954787 -0.848259 -66.906252 35.794969 70.575067 0.000279 102.677039 -0.000288 -5.441292 12.758009 -24.265902 8.395948 -16.401190 6.859064 13.617790 -18.222572 -1.655205 70.789105 -48.031260 23.551869 -0.000001 0.000001 0.000000 5.546596 -6.806065 78.334299 8.230102 -6.829530 100.656846 5.546592 -6.806067 78.334319 -0.000000 -0.000000 0.000000 -41.048225 -4.267866 34.515056 41.679225 -10.660862 10.192507 -1.028793 -15.320685 -34.988389 -10.782228 0.000000 -0.000008 -0.000000 0.000003 0.000000 -8.439683 -12.629662 -35.791134 43.416224 11.849302 -6.870478 -24.549879 -4.793873 30.913860 -6.729393 -0.084986 2.665637 0.000000 -0.000001 -0.000000 
-2.191680 70.639145 30.109928 -2.908648 -44.546501 -3.452884 7.867636 1.526248 -2.173579 9.874449 2.665219 -2.924116 9.894332 2.728835 -2.791175 3.188180 2.291067 -7.509756 3.526767 15.226119 -0.514693 -0.000000 -0.000001 -0.000000 2.287290 -3.602990 -1.353438 -46.056529 -10.749220 -57.014891 -0.000011 -119.857307 -0.000011 -10.934854 -0.582763 4.346805 5.029922 6.628651 -74.357503 8.636854 6.654506 -104.815823 5.029923 6.628650 -74.357496 -0.000001 0.000001 -0.000000 5.477418 9.572876 -5.045660 18.936078 30.407056 -7.599451 8.227158 38.219300 10.744991 0.000001 -0.000001 0.000000 2.376883 10.260413 -1.630856 -64.619313 35.001926 68.776180 -0.000134 102.756071 0.000140 -5.019753 11.720777 -24.427646 8.395945 -16.401190 6.859061 13.617791 -18.222572 -1.655204 70.789105 -48.031260 23.551867 -0.000000 0.000001 0.000000 5.546596 -6.806070 78.334299 8.230107 -6.829527 100.656839 5.546590 -6.806064 78.334319 -0.000001 -0.000003 -0.000001 -41.754176 -2.039478 33.095289 35.819165 -10.126484 10.517509 5.141173 -17.759310 -33.220094 -9.667863 -0.000017 0.000003 0.000000 0.000000 -0.000000 -6.712925 -14.097847 -35.327490 42.133647 12.203780 -5.775500 -27.405999 -7.432626 30.527961 -5.374225 -0.011264 0.979269 -0.000000 0.000002 0.000000 
